<svg xmlns="http://www.w3.org/2000/svg" xmlns:xlink="http://www.w3.org/1999/xlink" viewBox="0 0 430 430" width="430" height="430" preserveAspectRatio="xMidYMid meet" style="width: 100%; height: 100%; transform: translate3d(0px, 0px, 0px); content-visibility: visible;"><defs><clipPath id="__lottie_element_4033"><rect width="430" height="430" x="0" y="0"/></clipPath><clipPath id="__lottie_element_4035"><path d="M0,0 L430,0 L430,430 L0,430z"/></clipPath></defs><g clip-path="url(#__lottie_element_4033)"><g clip-path="url(#__lottie_element_4035)" transform="matrix(1,0,0,1,0,0)" opacity="1" style="display: block;"><g transform="matrix(1,0,0,1,-35,-35)" opacity="1" style="display: block;"><g opacity="1" transform="matrix(1,0,0,1,250,250)"><path class="secondary" fill="rgb(242,139,168)" fill-opacity="1" d=" M114.14105224609375,-101.59586334228516 C100.74352264404297,-114.7448501586914 83.729736328125,-122.79017639160156 64.93928527832031,-124.86164093017578 C40.604434967041016,-127.54483795166016 16.717918395996094,-119.71844482421875 -1.0128692388534546,-103.3447265625 C-16.427324295043945,-117.57624816894531 -36.441246032714844,-125.38277435302734 -57.655696868896484,-125.38277435302734 C-79.74214935302734,-125.38277435302734 -100.51306915283203,-116.92704772949219 -116.16452026367188,-101.59812927246094 C-131.80291748046875,-86.28153991699219 -140.41656494140625,-65.9130859375 -140.41656494140625,-44.24570083618164 C-140.41656494140625,-22.578317642211914 -131.80364990234375,-2.2093992233276367 -116.16551971435547,13.106189727783203 C-116.16551971435547,13.106189727783203 -2.943267822265625,124.11224365234375 -2.943267822265625,124.11224365234375 C-2.4308016300201416,124.61477661132812 -1.73540198802948,124.89757537841797 -1.010602593421936,124.89757537841797 C-0.28553640842437744,124.89757537841797 0.40959644317626953,124.61450958251953 0.9220627546310425,124.11224365234375 C0.9220627546310425,124.11224365234375 114.13978576660156,13.106189727783203 114.13978576660156,13.106189727783203 C129.78343200683594,-2.2317991256713867 138.39990234375,-22.59545135498047 138.39990234375,-44.2293701171875 C138.39990234375,-65.88542175292969 129.7761688232422,-86.25106811523438 114.14105224609375,-101.59586334228516z"/></g><g opacity="0.5" transform="matrix(1,0,0,1,160.75999450683594,250.0260009765625)" style="mix-blend-mode: multiply;"><path class="secondary" fill="rgb(242,139,168)" fill-opacity="1" d=" M88.22612762451172,-103.3707275390625 C72.84233856201172,-117.41604614257812 52.572357177734375,-125.40777587890625 31.583303451538086,-125.40777587890625 C9.49685287475586,-125.40777587890625 -11.273799896240234,-116.95304870605469 -26.925254821777344,-101.62413024902344 C-42.56364440917969,-86.30754089355469 -51.17683792114258,-65.9383544921875 -51.17683792114258,-44.27096939086914 C-51.17683792114258,-22.60358428955078 -42.56364440917969,-2.2353992462158203 -26.925521850585938,13.08018970489502 C-26.925521850585938,13.08018970489502 84.36233520507812,122.19164276123047 84.36233520507812,122.19164276123047 C87.68373107910156,125.44857788085938 88.22840118408203,124.87184143066406 88.22840118408203,124.87184143066406 C88.22840118408203,124.87184143066406 88.22612762451172,-103.3707275390625 88.22612762451172,-103.3707275390625z"/></g></g><g transform="matrix(1,0,0,1,215,215)" opacity="1" style="display: block;"><g opacity="1" transform="matrix(1,0,0,1,0,0)"><path stroke-linecap="round" stroke-linejoin="round" fill-opacity="0" class="primary" stroke="rgb(18,19,49)" stroke-opacity="1" stroke-width="7" d=" M25.690000534057617,-86.677001953125 C15.835000038146973,-81.9800033569336 6.4730000495910645,-75.08999633789062 -0.621999979019165,-67.98899841308594 C-0.6215524673461914,-67.98905181884766 -0.6944107413291931,-67.91643524169922 -0.6944107413291931,-67.91643524169922 C-0.6944107413291931,-67.91643524169922 -0.7695094347000122,-67.98905181884766 -0.7695094347000122,-67.98905181884766 C-12.279999732971191,-79.5 -30.388999938964844,-92.0770034790039 -45.66400146484375,-92.88500213623047"/></g></g><g transform="matrix(1,0,0,1,-35,-35)" opacity="1" style="display: block;"><path stroke-linecap="round" stroke-linejoin="round" fill-opacity="0" class="primary" stroke="rgb(18,19,49)" stroke-opacity="1" stroke-width="7" d=" M364.14,148.4 C350.74,135.26 333.73,127.21 314.94,125.14 C290.6,122.46 266.72,130.28 248.99,146.66 C233.57,132.42 213.56,124.62 192.34,124.62 C170.26,124.62 149.49,133.07 133.84,148.4 C118.2,163.72 109.58,184.09 109.58,205.75 C109.58,227.42 118.2,247.79 133.83,263.11 C133.83,263.11 247.06,374.11 247.06,374.11 C247.57,374.61 248.26,374.9 248.99,374.9 C249.71,374.9 250.41,374.61 250.92,374.11 C250.92,374.11 364.14,263.11 364.14,263.11 C379.78,247.77 388.4,227.4 388.4,205.77 C388.4,184.11 379.78,163.75 364.14,148.4z"/><g opacity="1" transform="matrix(1,0,0,1,250,250)"/></g></g></g></svg>